<mxfile host="app.diagrams.net" modified="2022-03-30T07:24:24.467Z" agent="5.0 (Macintosh; Intel Mac OS X 10_15_6) AppleWebKit/537.36 (KHTML, like Gecko) Chrome/78.0.3904.108 Safari/537.36" etag="RF619l_Q1JwzhxZ0N9Xg" version="17.2.1" type="github">
  <diagram id="ihBc0QGuPxb0S3G1goWF" name="Page-1">
    <mxGraphModel dx="3005" dy="801" grid="1" gridSize="10" guides="1" tooltips="1" connect="1" arrows="1" fold="1" page="1" pageScale="1" pageWidth="827" pageHeight="1169" math="0" shadow="0">
      <root>
        <mxCell id="0" />
        <mxCell id="1" parent="0" />
        <mxCell id="_EqHwqMPYveHNjQXLmpc-3" value="" style="edgeStyle=orthogonalEdgeStyle;rounded=0;orthogonalLoop=1;jettySize=auto;html=1;fontSize=26;" edge="1" parent="1" source="_EqHwqMPYveHNjQXLmpc-1" target="_EqHwqMPYveHNjQXLmpc-2">
          <mxGeometry relative="1" as="geometry" />
        </mxCell>
        <mxCell id="_EqHwqMPYveHNjQXLmpc-5" value="" style="edgeStyle=orthogonalEdgeStyle;rounded=0;orthogonalLoop=1;jettySize=auto;html=1;fontSize=26;" edge="1" parent="1" source="_EqHwqMPYveHNjQXLmpc-1" target="_EqHwqMPYveHNjQXLmpc-4">
          <mxGeometry relative="1" as="geometry" />
        </mxCell>
        <mxCell id="_EqHwqMPYveHNjQXLmpc-1" value="头图" style="rounded=1;whiteSpace=wrap;html=1;fontSize=26;fontStyle=1;glass=0;shadow=1;sketch=1;fillColor=#ffe6cc;strokeColor=#d79b00;" vertex="1" parent="1">
          <mxGeometry x="330" y="650" width="200" height="190" as="geometry" />
        </mxCell>
        <mxCell id="_EqHwqMPYveHNjQXLmpc-2" value="活动规则" style="rounded=1;whiteSpace=wrap;html=1;fontSize=26;fontStyle=0;glass=0;shadow=1;sketch=1;" vertex="1" parent="1">
          <mxGeometry x="50" y="715" width="120" height="60" as="geometry" />
        </mxCell>
        <mxCell id="_EqHwqMPYveHNjQXLmpc-4" value="13张走势图" style="rounded=1;whiteSpace=wrap;html=1;fontSize=26;fontStyle=0;glass=0;shadow=1;sketch=1;fillColor=#f8cecc;strokeColor=#b85450;" vertex="1" parent="1">
          <mxGeometry x="690" y="715" width="120" height="60" as="geometry" />
        </mxCell>
        <mxCell id="_EqHwqMPYveHNjQXLmpc-21" value="" style="edgeStyle=orthogonalEdgeStyle;rounded=0;orthogonalLoop=1;jettySize=auto;html=1;fontSize=26;entryX=1;entryY=0.5;entryDx=0;entryDy=0;" edge="1" parent="1" source="_EqHwqMPYveHNjQXLmpc-6" target="_EqHwqMPYveHNjQXLmpc-20">
          <mxGeometry relative="1" as="geometry" />
        </mxCell>
        <mxCell id="_EqHwqMPYveHNjQXLmpc-23" value="" style="edgeStyle=orthogonalEdgeStyle;rounded=0;orthogonalLoop=1;jettySize=auto;html=1;fontSize=26;" edge="1" parent="1" source="_EqHwqMPYveHNjQXLmpc-6" target="_EqHwqMPYveHNjQXLmpc-22">
          <mxGeometry relative="1" as="geometry" />
        </mxCell>
        <mxCell id="_EqHwqMPYveHNjQXLmpc-6" value="PK排名" style="rounded=1;whiteSpace=wrap;html=1;fontSize=26;fontStyle=1;fillColor=#dae8fc;strokeColor=#6c8ebf;glass=0;shadow=1;sketch=1;" vertex="1" parent="1">
          <mxGeometry x="40" y="920" width="120" height="60" as="geometry" />
        </mxCell>
        <mxCell id="_EqHwqMPYveHNjQXLmpc-52" value="" style="edgeStyle=orthogonalEdgeStyle;rounded=0;orthogonalLoop=1;jettySize=auto;html=1;fontSize=26;" edge="1" parent="1" source="_EqHwqMPYveHNjQXLmpc-8" target="_EqHwqMPYveHNjQXLmpc-51">
          <mxGeometry relative="1" as="geometry" />
        </mxCell>
        <mxCell id="_EqHwqMPYveHNjQXLmpc-8" value="去模考" style="rounded=1;whiteSpace=wrap;html=1;fontSize=26;fontStyle=1;fillColor=#dae8fc;strokeColor=#6c8ebf;glass=0;shadow=1;sketch=1;" vertex="1" parent="1">
          <mxGeometry x="707" y="860" width="120" height="60" as="geometry" />
        </mxCell>
        <mxCell id="_EqHwqMPYveHNjQXLmpc-13" value="" style="edgeStyle=orthogonalEdgeStyle;rounded=0;orthogonalLoop=1;jettySize=auto;html=1;fontSize=26;" edge="1" parent="1" source="_EqHwqMPYveHNjQXLmpc-10" target="_EqHwqMPYveHNjQXLmpc-12">
          <mxGeometry relative="1" as="geometry" />
        </mxCell>
        <mxCell id="_EqHwqMPYveHNjQXLmpc-10" value="自估分分数参与pk" style="rounded=1;whiteSpace=wrap;html=1;fontSize=26;fontStyle=1;fillColor=#dae8fc;strokeColor=#6c8ebf;glass=0;shadow=1;sketch=1;" vertex="1" parent="1">
          <mxGeometry x="707" y="990" width="120" height="60" as="geometry" />
        </mxCell>
        <mxCell id="_EqHwqMPYveHNjQXLmpc-15" value="" style="edgeStyle=orthogonalEdgeStyle;rounded=0;orthogonalLoop=1;jettySize=auto;html=1;fontSize=26;" edge="1" parent="1" source="_EqHwqMPYveHNjQXLmpc-12" target="_EqHwqMPYveHNjQXLmpc-14">
          <mxGeometry relative="1" as="geometry" />
        </mxCell>
        <mxCell id="_EqHwqMPYveHNjQXLmpc-12" value="PK" style="rounded=1;whiteSpace=wrap;html=1;fontSize=26;fontStyle=1;fillColor=#dae8fc;strokeColor=#6c8ebf;glass=0;shadow=1;sketch=1;" vertex="1" parent="1">
          <mxGeometry x="1010" y="990" width="120" height="60" as="geometry" />
        </mxCell>
        <mxCell id="_EqHwqMPYveHNjQXLmpc-28" style="edgeStyle=orthogonalEdgeStyle;rounded=0;orthogonalLoop=1;jettySize=auto;html=1;exitX=0.5;exitY=0;exitDx=0;exitDy=0;fontSize=26;entryX=0;entryY=0.5;entryDx=0;entryDy=0;" edge="1" parent="1" source="_EqHwqMPYveHNjQXLmpc-14" target="_EqHwqMPYveHNjQXLmpc-24">
          <mxGeometry relative="1" as="geometry" />
        </mxCell>
        <mxCell id="_EqHwqMPYveHNjQXLmpc-30" value="成功" style="edgeLabel;html=1;align=center;verticalAlign=middle;resizable=0;points=[];fontSize=26;" vertex="1" connectable="0" parent="_EqHwqMPYveHNjQXLmpc-28">
          <mxGeometry x="-0.136" y="3" relative="1" as="geometry">
            <mxPoint as="offset" />
          </mxGeometry>
        </mxCell>
        <mxCell id="_EqHwqMPYveHNjQXLmpc-29" style="edgeStyle=orthogonalEdgeStyle;rounded=0;orthogonalLoop=1;jettySize=auto;html=1;exitX=0.5;exitY=1;exitDx=0;exitDy=0;fontSize=26;entryX=0;entryY=0.5;entryDx=0;entryDy=0;" edge="1" parent="1" source="_EqHwqMPYveHNjQXLmpc-14" target="_EqHwqMPYveHNjQXLmpc-26">
          <mxGeometry relative="1" as="geometry" />
        </mxCell>
        <mxCell id="_EqHwqMPYveHNjQXLmpc-31" value="失败" style="edgeLabel;html=1;align=center;verticalAlign=middle;resizable=0;points=[];fontSize=26;" vertex="1" connectable="0" parent="_EqHwqMPYveHNjQXLmpc-29">
          <mxGeometry x="0.0839" y="1" relative="1" as="geometry">
            <mxPoint as="offset" />
          </mxGeometry>
        </mxCell>
        <mxCell id="_EqHwqMPYveHNjQXLmpc-14" value="PK结果" style="rounded=1;whiteSpace=wrap;html=1;fontSize=26;fontStyle=1;fillColor=#dae8fc;strokeColor=#6c8ebf;glass=0;shadow=1;sketch=1;" vertex="1" parent="1">
          <mxGeometry x="1270" y="990" width="120" height="60" as="geometry" />
        </mxCell>
        <mxCell id="_EqHwqMPYveHNjQXLmpc-20" value="参加模考" style="rounded=1;whiteSpace=wrap;html=1;fontSize=26;fontStyle=1;fillColor=#dae8fc;strokeColor=#6c8ebf;glass=0;shadow=1;sketch=1;" vertex="1" parent="1">
          <mxGeometry x="-260" y="820" width="120" height="60" as="geometry" />
        </mxCell>
        <mxCell id="_EqHwqMPYveHNjQXLmpc-22" value="分享排名" style="rounded=1;whiteSpace=wrap;html=1;fontSize=26;fontStyle=1;fillColor=#dae8fc;strokeColor=#6c8ebf;glass=0;shadow=1;sketch=1;" vertex="1" parent="1">
          <mxGeometry x="-260" y="970" width="120" height="60" as="geometry" />
        </mxCell>
        <mxCell id="_EqHwqMPYveHNjQXLmpc-24" value="领攻略" style="rounded=1;whiteSpace=wrap;html=1;fontSize=26;fontStyle=1;fillColor=#dae8fc;strokeColor=#6c8ebf;glass=0;shadow=1;sketch=1;" vertex="1" parent="1">
          <mxGeometry x="1534" y="890" width="120" height="60" as="geometry" />
        </mxCell>
        <mxCell id="_EqHwqMPYveHNjQXLmpc-26" value="领指南" style="rounded=1;whiteSpace=wrap;html=1;fontSize=26;fontStyle=1;fillColor=#dae8fc;strokeColor=#6c8ebf;glass=0;shadow=1;sketch=1;" vertex="1" parent="1">
          <mxGeometry x="1534" y="1070" width="120" height="60" as="geometry" />
        </mxCell>
        <mxCell id="_EqHwqMPYveHNjQXLmpc-62" style="edgeStyle=orthogonalEdgeStyle;rounded=0;orthogonalLoop=1;jettySize=auto;html=1;exitX=0;exitY=0.5;exitDx=0;exitDy=0;entryX=1;entryY=0.5;entryDx=0;entryDy=0;fontSize=26;" edge="1" parent="1" source="_EqHwqMPYveHNjQXLmpc-32" target="_EqHwqMPYveHNjQXLmpc-6">
          <mxGeometry relative="1" as="geometry" />
        </mxCell>
        <mxCell id="_EqHwqMPYveHNjQXLmpc-67" style="edgeStyle=orthogonalEdgeStyle;rounded=0;orthogonalLoop=1;jettySize=auto;html=1;entryX=0;entryY=0.5;entryDx=0;entryDy=0;fontSize=26;" edge="1" parent="1" target="_EqHwqMPYveHNjQXLmpc-8">
          <mxGeometry relative="1" as="geometry">
            <mxPoint x="530" y="890" as="sourcePoint" />
          </mxGeometry>
        </mxCell>
        <mxCell id="_EqHwqMPYveHNjQXLmpc-68" style="edgeStyle=orthogonalEdgeStyle;rounded=0;orthogonalLoop=1;jettySize=auto;html=1;exitX=0.989;exitY=0.82;exitDx=0;exitDy=0;entryX=0;entryY=0.5;entryDx=0;entryDy=0;fontSize=26;exitPerimeter=0;" edge="1" parent="1" source="_EqHwqMPYveHNjQXLmpc-32" target="_EqHwqMPYveHNjQXLmpc-10">
          <mxGeometry relative="1" as="geometry" />
        </mxCell>
        <mxCell id="_EqHwqMPYveHNjQXLmpc-32" value="pk国家线" style="rounded=1;whiteSpace=wrap;html=1;fontSize=26;fontStyle=1;fillColor=#ffe6cc;strokeColor=#d79b00;glass=0;shadow=1;sketch=1;" vertex="1" parent="1">
          <mxGeometry x="330" y="840" width="200" height="220" as="geometry" />
        </mxCell>
        <mxCell id="_EqHwqMPYveHNjQXLmpc-35" value="好课特惠" style="rounded=1;whiteSpace=wrap;html=1;fontSize=26;fontStyle=1;fillColor=#ffe6cc;strokeColor=#d79b00;glass=0;shadow=1;sketch=1;" vertex="1" parent="1">
          <mxGeometry x="-387" y="1420" width="120" height="60" as="geometry" />
        </mxCell>
        <mxCell id="_EqHwqMPYveHNjQXLmpc-42" value="" style="edgeStyle=orthogonalEdgeStyle;rounded=0;orthogonalLoop=1;jettySize=auto;html=1;fontSize=26;" edge="1" parent="1" source="_EqHwqMPYveHNjQXLmpc-39" target="_EqHwqMPYveHNjQXLmpc-41">
          <mxGeometry relative="1" as="geometry" />
        </mxCell>
        <mxCell id="_EqHwqMPYveHNjQXLmpc-44" value="" style="edgeStyle=orthogonalEdgeStyle;rounded=0;orthogonalLoop=1;jettySize=auto;html=1;fontSize=26;" edge="1" parent="1" source="_EqHwqMPYveHNjQXLmpc-39" target="_EqHwqMPYveHNjQXLmpc-43">
          <mxGeometry relative="1" as="geometry" />
        </mxCell>
        <mxCell id="_EqHwqMPYveHNjQXLmpc-39" value="邀请赢礼" style="rounded=1;whiteSpace=wrap;html=1;fontSize=26;fontStyle=1;fillColor=#ffe6cc;strokeColor=#d79b00;glass=0;shadow=1;sketch=1;" vertex="1" parent="1">
          <mxGeometry x="-477" y="1620" width="120" height="60" as="geometry" />
        </mxCell>
        <mxCell id="_EqHwqMPYveHNjQXLmpc-41" value="填写收货地址" style="rounded=1;whiteSpace=wrap;html=1;fontSize=26;fontStyle=1;fillColor=#ffe6cc;strokeColor=#d79b00;glass=0;shadow=1;sketch=1;" vertex="1" parent="1">
          <mxGeometry x="-587" y="1770" width="120" height="60" as="geometry" />
        </mxCell>
        <mxCell id="_EqHwqMPYveHNjQXLmpc-43" value="立即邀请" style="rounded=1;whiteSpace=wrap;html=1;fontSize=26;fontStyle=1;fillColor=#ffe6cc;strokeColor=#d79b00;glass=0;shadow=1;sketch=1;" vertex="1" parent="1">
          <mxGeometry x="-387" y="1770" width="120" height="60" as="geometry" />
        </mxCell>
        <mxCell id="_EqHwqMPYveHNjQXLmpc-45" value="推广&lt;br&gt;赚学费" style="rounded=1;whiteSpace=wrap;html=1;fontSize=26;fontStyle=1;fillColor=#ffe6cc;strokeColor=#d79b00;glass=0;shadow=1;sketch=1;" vertex="1" parent="1">
          <mxGeometry x="-777" y="1620" width="120" height="60" as="geometry" />
        </mxCell>
        <mxCell id="_EqHwqMPYveHNjQXLmpc-47" value="方案咨询" style="rounded=1;whiteSpace=wrap;html=1;fontSize=26;fontStyle=1;fillColor=#ffe6cc;strokeColor=#d79b00;glass=0;shadow=1;sketch=1;" vertex="1" parent="1">
          <mxGeometry x="-1020" y="1620" width="120" height="60" as="geometry" />
        </mxCell>
        <mxCell id="_EqHwqMPYveHNjQXLmpc-50" value="&lt;h1&gt;去模考&lt;/h1&gt;&lt;p&gt;绑定各个科目的考试url&lt;/p&gt;&lt;p&gt;①支持断点续答&lt;/p&gt;&lt;p&gt;②需要验签&lt;/p&gt;&lt;p&gt;③http接收题库通知&lt;/p&gt;" style="text;html=1;strokeColor=none;fillColor=none;spacing=5;spacingTop=-20;whiteSpace=wrap;overflow=hidden;rounded=0;shadow=1;glass=0;sketch=1;fontSize=26;" vertex="1" parent="1">
          <mxGeometry x="2090" y="950" width="320" height="320" as="geometry" />
        </mxCell>
        <mxCell id="_EqHwqMPYveHNjQXLmpc-55" style="edgeStyle=orthogonalEdgeStyle;rounded=0;orthogonalLoop=1;jettySize=auto;html=1;exitX=0.5;exitY=1;exitDx=0;exitDy=0;entryX=0.5;entryY=0;entryDx=0;entryDy=0;fontSize=26;" edge="1" parent="1" source="_EqHwqMPYveHNjQXLmpc-51" target="_EqHwqMPYveHNjQXLmpc-12">
          <mxGeometry relative="1" as="geometry" />
        </mxCell>
        <mxCell id="_EqHwqMPYveHNjQXLmpc-51" value="得分弹窗" style="rounded=1;whiteSpace=wrap;html=1;fontSize=26;fontStyle=1;fillColor=#dae8fc;strokeColor=#6c8ebf;glass=0;shadow=1;sketch=1;" vertex="1" parent="1">
          <mxGeometry x="1010" y="860" width="120" height="60" as="geometry" />
        </mxCell>
        <mxCell id="_EqHwqMPYveHNjQXLmpc-56" value="我的奖品池" style="rounded=1;whiteSpace=wrap;html=1;fontSize=26;fontStyle=1;fillColor=#ffe6cc;strokeColor=#d79b00;glass=0;shadow=1;sketch=1;" vertex="1" parent="1">
          <mxGeometry x="330" y="1060" width="200" height="220" as="geometry" />
        </mxCell>
        <mxCell id="_EqHwqMPYveHNjQXLmpc-58" value="晒上上上签" style="rounded=1;whiteSpace=wrap;html=1;fontSize=26;fontStyle=1;fillColor=#ffe6cc;strokeColor=#d79b00;glass=0;shadow=1;sketch=1;" vertex="1" parent="1">
          <mxGeometry x="330" y="1280" width="200" height="220" as="geometry" />
        </mxCell>
        <mxCell id="_EqHwqMPYveHNjQXLmpc-60" value="推广" style="rounded=1;whiteSpace=wrap;html=1;fontSize=26;fontStyle=1;fillColor=#ffe6cc;strokeColor=#d79b00;glass=0;shadow=1;sketch=1;" vertex="1" parent="1">
          <mxGeometry x="330" y="1500" width="200" height="120" as="geometry" />
        </mxCell>
        <mxCell id="_EqHwqMPYveHNjQXLmpc-61" value="咨询" style="rounded=1;whiteSpace=wrap;html=1;fontSize=26;fontStyle=1;fillColor=#ffe6cc;strokeColor=#d79b00;glass=0;shadow=1;sketch=1;" vertex="1" parent="1">
          <mxGeometry x="330" y="1620" width="200" height="120" as="geometry" />
        </mxCell>
      </root>
    </mxGraphModel>
  </diagram>
</mxfile>
